<?xml version="1.0" encoding="iso-8859-1"?>
<!-- Generator: Adobe Illustrator 18.0.0, SVG Export Plug-In . SVG Version: 6.00 Build 0)  -->
<!DOCTYPE svg PUBLIC "-//W3C//DTD SVG 1.1//EN" "http://www.w3.org/Graphics/SVG/1.1/DTD/svg11.dtd">
<svg xmlns="http://www.w3.org/2000/svg" xmlns:xlink="http://www.w3.org/1999/xlink" version="1.1" id="Capa_1" x="0px" y="0px" viewBox="0 0 297 297" style="enable-background:new 0 0 297 297;" xml:space="preserve" width="512px" height="512px">
<g>
	<path d="M224.357,163.044h-21.181c-5.458,0-9.884,4.425-9.884,9.884s4.425,9.884,9.884,9.884h6.918v4.957   c0,5.458,4.425,9.884,9.884,9.884c5.458,0,9.884-4.425,9.884-9.884v-5.663c9.532-2.481,16.802-11.195,16.802-21.221   c0-11.887-10.216-21.929-22.306-21.929h-8.76c-1.162,0-2.537-1.172-2.537-2.162c0-0.989,1.375-2.161,2.537-2.161h21.183   c5.458,0,9.884-4.425,9.884-9.884s-4.425-9.884-9.884-9.884h-6.918v-5.634c0-5.458-4.425-9.884-9.884-9.884   c-5.458,0-9.884,4.425-9.884,9.884v6.339c-9.532,2.481-16.802,11.195-16.802,21.223c0,11.887,10.215,21.929,22.305,21.929h8.76   c1.163,0,2.539,1.172,2.539,2.162C226.896,161.874,225.52,163.044,224.357,163.044z" fill="#FFFFFF"/>
	<path d="M287.116,223.615c5.458,0,9.884-4.425,9.884-9.884V83.269c0-5.458-4.425-9.884-9.884-9.884H9.884   C4.425,73.385,0,77.811,0,83.269v130.463c0,5.458,4.425,9.884,9.884,9.884H287.116z M19.767,93.152h12.849v110.696H19.767V93.152z    M277.233,203.848H52.383V93.152h224.85V203.848z" fill="#FFFFFF"/>
	<path d="M75.115,174.691h81.539c5.458,0,9.884-4.425,9.884-9.884c0-5.458-4.425-9.884-9.884-9.884H75.115   c-5.458,0-9.884,4.425-9.884,9.884C65.231,170.266,69.657,174.691,75.115,174.691z" fill="#FFFFFF"/>
	<path d="M75.115,142.076h32.616c5.458,0,9.884-4.425,9.884-9.884c0-5.458-4.425-9.884-9.884-9.884H75.115   c-5.458,0-9.884,4.425-9.884,9.884C65.231,137.65,69.657,142.076,75.115,142.076z" fill="#FFFFFF"/>
</g>
<g>
</g>
<g>
</g>
<g>
</g>
<g>
</g>
<g>
</g>
<g>
</g>
<g>
</g>
<g>
</g>
<g>
</g>
<g>
</g>
<g>
</g>
<g>
</g>
<g>
</g>
<g>
</g>
<g>
</g>
</svg>
