<?xml version="1.0" encoding="iso-8859-1"?>
<!-- Generator: Adobe Illustrator 16.0.0, SVG Export Plug-In . SVG Version: 6.00 Build 0)  -->
<!DOCTYPE svg PUBLIC "-//W3C//DTD SVG 1.1//EN" "http://www.w3.org/Graphics/SVG/1.1/DTD/svg11.dtd">
<svg xmlns="http://www.w3.org/2000/svg" xmlns:xlink="http://www.w3.org/1999/xlink" version="1.1" id="Capa_1" x="0px" y="0px" width="512px" height="512px" viewBox="0 0 442.662 442.662" style="enable-background:new 0 0 442.662 442.662;" xml:space="preserve">
<g>
	<g id="Layer_8_61_">
		<path d="M421.179,0v50.43h-25.023v-1.456c0-9.27-7.545-16.81-16.81-16.81H65.56c-9.27,0-16.809,7.541-16.809,16.81v288.571    c0,9.272,7.539,16.81,16.809,16.81h313.786c9.265,0,16.81-7.537,16.81-16.81v-20.322c4.143-0.755,7.737-3.053,10.227-6.237h14.797    v131.677H316.588l-7.848-42.953H133.918l-7.844,42.953H21.483V0H421.179z M408.108,222.645c1.914,0,4.693-3.874,6.888-11.215    l-6.906-22.99l-6.882,22.947C403.402,218.754,406.186,222.645,408.108,222.645z M418.377,184.349    c0-9.223-0.907-16.805-2.219-22.744l-6.602,21.959l6.774,22.557C417.535,200.324,418.377,193.112,418.377,184.349z     M397.836,184.349c0,8.737,0.831,15.926,2.037,21.713l6.751-22.498l-6.578-21.901    C398.743,167.597,397.836,175.153,397.836,184.349z M414.767,156.455c-2.157-6.834-4.809-10.394-6.658-10.394    c-1.857,0-4.527,3.582-6.682,10.446l6.663,22.2L414.767,156.455z M380.084,57.713l41.095,15.696v85.249    c-2.597-10.624-6.977-18.2-13.07-18.2c-10.426,0-15.874,22.082-15.874,43.896c0,21.814,5.448,43.894,15.874,43.894    c6.094,0,10.474-7.578,13.07-18.203v85.253l-41.095,15.688v-3.925h-0.93v24.63c0,9.356-7.596,16.952-16.931,16.952H77.718    c-9.33,0-16.928-7.596-16.928-16.952V57.861c0-9.346,7.592-16.952,16.928-16.952h284.505c9.275,0,16.834,7.532,16.914,16.81    L380.084,57.713L380.084,57.713z M367.949,307.061h-30.82v-9.806H320.04V73.122h17.089V57.713h30.793    c-0.084-3.098-2.591-5.604-5.698-5.604H77.718c-3.154,0-5.72,2.578-5.72,5.746V331.69c0,3.157,2.566,5.734,5.72,5.734h284.505    c3.148,0,5.718-2.577,5.718-5.734L367.949,307.061L367.949,307.061z M101.795,133.539h188.642v-11.207H101.795V133.539z     M101.795,211.145h188.642v-11.206H101.795V211.145z M101.795,290.438h188.642V279.23H101.795V290.438z" fill="#FFFFFF"/>
	</g>
</g>
<g>
</g>
<g>
</g>
<g>
</g>
<g>
</g>
<g>
</g>
<g>
</g>
<g>
</g>
<g>
</g>
<g>
</g>
<g>
</g>
<g>
</g>
<g>
</g>
<g>
</g>
<g>
</g>
<g>
</g>
</svg>
