<?xml version="1.0"?>
<svg xmlns="http://www.w3.org/2000/svg" height="512px" viewBox="0 0 464 464" width="512px"><path d="m432 400h-16c4.414062 0 8-3.585938 8-8v-16c0-4.414062-3.585938-8-8-8h-152c-4.414062 0-8 3.585938-8 8v16c0 4.414062 3.585938 8 8 8h16c-4.414062 0-8 3.585938-8 8v16c0 4.414062 3.585938 8 8 8h-16c-4.414062 0-8 3.585938-8 8v16c0 4.414062 3.585938 8 8 8h152c4.414062 0 8-3.585938 8-8v-16c0-4.414062-3.585938-8-8-8h16c4.414062 0 8-3.585938 8-8v-16c0-4.414062-3.585938-8-8-8zm0 0" fill="#FFFFFF"/><path d="m256 280c0-4.414062-3.585938-8-8-8h-152c-4.414062 0-8 3.585938-8 8v16c0 4.414062 3.585938 8 8 8h-32c-4.414062 0-8 3.585938-8 8v16c0 4.414062 3.585938 8 8 8h-32c-4.414062 0-8 3.585938-8 8v16c0 4.414062 3.585938 8 8 8h16c-4.414062 0-8 3.585938-8 8v16c0 4.414062 3.585938 8 8 8h16c-4.414062 0-8 3.585938-8 8v16c0 4.414062 3.585938 8 8 8h-16c-4.414062 0-8 3.585938-8 8v16c0 4.414062 3.585938 8 8 8h152c4.414062 0 8-3.585938 8-8v-16c0-4.414062-3.585938-8-8-8h16c4.414062 0 8-3.585938 8-8v-16c0-4.414062-3.585938-8-8-8h-16c4.414062 0 8-3.585938 8-8v-16c0-4.414062-3.585938-8-8-8h-16c4.414062 0 8-3.585938 8-8v-16c0-4.414062-3.585938-8-8-8h32c4.414062 0 8-3.585938 8-8v-16c0-4.414062-3.585938-8-8-8h32c4.414062 0 8-3.585938 8-8zm0 0" fill="#FFFFFF"/><path d="m0 208.808594v31.191406h31.191406c-3.191406-15.648438-15.542968-28-31.191406-31.191406zm0 0" fill="#FFFFFF"/><path d="m432.808594 240h31.191406v-31.191406c-15.648438 3.191406-28 15.542968-31.191406 31.191406zm0 0" fill="#FFFFFF"/><path d="m31.191406 0h-31.191406v31.191406c15.648438-3.191406 28-15.542968 31.191406-31.191406zm0 0" fill="#FFFFFF"/><path d="m232 32c-48.519531 0-88 39.480469-88 88s39.480469 88 88 88 88-39.480469 88-88-39.480469-88-88-88zm-16 80h32c17.648438 0 32 14.351562 32 32s-14.351562 32-32 32h-8v16h-16v-16h-8c-17.648438 0-32-14.351562-32-32h16c0 8.824219 7.175781 16 16 16h32c8.824219 0 16-7.175781 16-16s-7.175781-16-16-16h-32c-17.648438 0-32-14.351562-32-32s14.351562-32 32-32h8v-16h16v16h8c17.648438 0 32 14.351562 32 32h-16c0-8.824219-7.175781-16-16-16h-32c-8.824219 0-16 7.175781-16 16s7.175781 16 16 16zm0 0" fill="#FFFFFF"/><path d="m432.808594 0c3.191406 15.648438 15.542968 28 31.191406 31.191406v-31.191406zm0 0" fill="#FFFFFF"/><path d="m416.640625 0h-369.28125c-3.527344 24.472656-22.886719 43.839844-47.359375 47.359375v145.28125c24.472656 3.527344 43.832031 22.886719 47.359375 47.359375h369.28125c3.527344-24.472656 22.886719-43.832031 47.359375-47.359375v-145.28125c-24.472656-3.519531-43.832031-22.886719-47.359375-47.359375zm-184.640625 224c-57.34375 0-104-46.65625-104-104s46.65625-104 104-104 104 46.65625 104 104-46.65625 104-104 104zm0 0" fill="#FFFFFF"/></svg>
