<?xml version="1.0"?>
<svg xmlns="http://www.w3.org/2000/svg" height="512px" version="1.1" viewBox="0 -32 875 875" width="512px">
<g id="surface1">
<path d="M 475 619.390625 L 471 621.578125 C 468.703125 622.808594 466.136719 623.46875 463.53125 623.46875 L 343.75 623.46875 C 326.488281 623.46875 312.5 637.457031 312.5 654.71875 C 312.5 671.972656 326.488281 685.96875 343.75 685.96875 L 468.75 685.96875 C 477.382812 685.96875 484.375 692.964844 484.375 701.59375 C 484.375 710.226562 477.382812 717.21875 468.75 717.21875 L 312.5 717.21875 C 310.25 717.226562 308.03125 716.742188 305.980469 715.816406 L 128.3125 634.375 C 117.335938 629.351562 104.550781 630.253906 94.394531 636.789062 C 84.238281 643.316406 78.117188 654.566406 78.125 666.644531 L 78.125 670.042969 C 78.078125 683.476562 85.683594 695.773438 97.714844 701.738281 L 279.90625 792.835938 C 303.78125 804.71875 330.085938 810.917969 356.761719 810.9375 L 671.875 810.9375 L 671.875 617.1875 C 610.015625 584.933594 536.125 585.757812 475 619.390625 Z M 475 619.390625 " style=" fill-rule:nonzero;fill-opacity:1;" stroke="#FFFFFF" fill="#FFFFFF"/>
<path d="M 703.125 623.4375 L 703.125 810.9375 L 875 810.9375 L 875 623.4375 Z M 765.625 779.6875 L 734.375 779.6875 L 734.375 748.4375 L 765.625 748.4375 Z M 765.625 779.6875 " style=" fill-rule:nonzero;fill-opacity:1;" stroke="#FFFFFF" fill="#FFFFFF"/>
<path d="M 342.1875 78.125 L 0 78.125 L 0 265.625 L 15.625 265.625 C 76 265.558594 124.929688 216.632812 125 156.25 C 125 147.621094 131.992188 140.625 140.625 140.625 L 265.625 140.625 C 302.734375 140.589844 334.71875 114.476562 342.1875 78.125 Z M 342.1875 78.125 " style=" fill-rule:nonzero;fill-opacity:1;" stroke="#FFFFFF" fill="#FFFFFF"/>
<path d="M 15.625 296.875 L 0 296.875 L 0 328.125 L 80.761719 328.125 C 95.578125 328.03125 110.351562 326.898438 125 324.738281 L 125 244.390625 C 98.382812 277.558594 58.15625 296.867188 15.625 296.875 Z M 15.625 296.875 " style=" fill-rule:nonzero;fill-opacity:1;" stroke="#FFFFFF" fill="#FFFFFF"/>
<path d="M 156.25 453.125 L 718.75 453.125 L 718.75 484.375 L 156.25 484.375 Z M 156.25 453.125 " style=" fill-rule:nonzero;fill-opacity:1;" stroke="#FFFFFF" fill="#FFFFFF"/>
<path d="M 342.035156 140.625 C 321.648438 160.664062 294.199219 171.875 265.625 171.875 L 218.75 171.875 L 218.75 268.300781 C 232.078125 273.046875 242.578125 283.546875 247.324219 296.875 L 372.015625 296.875 C 334.328125 251.613281 334.328125 185.890625 372.015625 140.625 Z M 296.875 234.375 L 265.625 234.375 L 265.625 203.125 L 296.875 203.125 Z M 296.875 234.375 " style=" fill-rule:nonzero;fill-opacity:1;" stroke="#FFFFFF" fill="#FFFFFF"/>
<path d="M 627.675781 296.875 C 632.421875 283.546875 642.921875 273.046875 656.25 268.300781 L 656.25 169.210938 C 642.921875 164.453125 632.421875 153.957031 627.675781 140.625 L 502.984375 140.625 C 540.671875 185.890625 540.671875 251.613281 502.984375 296.875 Z M 578.125 203.125 L 609.375 203.125 L 609.375 234.375 L 578.125 234.375 Z M 578.125 203.125 " style=" fill-rule:nonzero;fill-opacity:1;" stroke="#FFFFFF" fill="#FFFFFF"/>
<path d="M 156.25 390.625 L 718.75 390.625 L 718.75 421.875 L 156.25 421.875 Z M 156.25 390.625 " style=" fill-rule:nonzero;fill-opacity:1;" stroke="#FFFFFF" fill="#FFFFFF"/>
<path d="M 359.375 46.875 L 507.8125 46.875 C 520.757812 46.875 531.25 36.382812 531.25 23.4375 C 531.25 10.492188 520.757812 0 507.8125 0 L 86.578125 0 C 72.660156 -0.0078125 58.867188 2.632812 45.953125 7.8125 L 0 26.203125 L 0 46.875 Z M 359.375 46.875 " style=" fill-rule:nonzero;fill-opacity:1;" stroke="#FFFFFF" fill="#FFFFFF"/>
<path d="M 500 218.75 C 500 175.605469 472.015625 140.625 437.5 140.625 C 402.984375 140.625 375 175.605469 375 218.75 C 375 261.894531 402.984375 296.875 437.5 296.875 C 472.015625 296.875 500 261.894531 500 218.75 Z M 500 218.75 " style=" fill-rule:nonzero;fill-opacity:1;" stroke="#FFFFFF" fill="#FFFFFF"/>
<path d="M 373.75 78.125 C 372.191406 88.960938 369.015625 99.492188 364.296875 109.375 L 640.625 109.375 C 649.257812 109.375 656.25 116.371094 656.25 125 C 656.25 133.632812 663.242188 140.625 671.875 140.625 C 680.507812 140.625 687.5 147.621094 687.5 156.25 L 687.5 281.25 C 687.5 289.882812 680.507812 296.875 671.875 296.875 C 663.242188 296.875 656.25 303.871094 656.25 312.5 C 656.25 321.132812 649.257812 328.125 640.625 328.125 L 234.375 328.125 C 225.742188 328.125 218.75 321.132812 218.75 312.5 C 218.75 303.871094 211.757812 296.875 203.125 296.875 C 194.492188 296.875 187.5 289.882812 187.5 281.25 L 187.5 171.875 L 156.25 171.875 L 156.25 359.375 L 718.75 359.375 L 718.75 78.125 Z M 373.75 78.125 " style=" fill-rule:nonzero;fill-opacity:1;" stroke="#FFFFFF" fill="#FFFFFF"/>
</g>
</svg>
