<?xml version="1.0" encoding="iso-8859-1"?>
<!-- Generator: Adobe Illustrator 19.0.0, SVG Export Plug-In . SVG Version: 6.00 Build 0)  -->
<svg xmlns="http://www.w3.org/2000/svg" xmlns:xlink="http://www.w3.org/1999/xlink" version="1.1" id="Capa_1" x="0px" y="0px" viewBox="0 0 512 512" style="enable-background:new 0 0 512 512;" xml:space="preserve" width="512px" height="512px">
<g>
	<g>
		<polygon points="470.395,80.395 451,99.789 451,0 316,0 316,30 421,30 421,99.789 401.605,80.395 380.395,101.605 436,157.211     491.605,101.605   " fill="#FFFFFF"/>
	</g>
</g>
<g>
	<g>
		<polygon points="91,482 91,412.211 110.395,431.605 131.605,410.395 76,354.789 20.395,410.395 41.605,431.605 61,412.211 61,512     196,512 196,482   " fill="#FFFFFF"/>
	</g>
</g>
<g>
	<g>
		<path d="M151,0C68.158,0,0,68.158,0,151s68.158,150,151,150s150-67.158,150-150S233.842,0,151,0z M181,106v30h-73.87    c-1.641,9.901-1.639,20.099,0.002,30H181v30h-62.644c1.901,3.107,3.805,6.218,6.145,9.023    c22.529,27.07,60.469,27.056,82.998,0.015l23.057,19.189C213.49,244.721,190.565,256,166,256s-47.49-11.279-64.556-31.772    C94.433,215.819,89.233,206.15,85.142,196H61v-30h16.393c-1.208-9.963-1.208-20.035,0-30H61v-30h24.139    c4.091-10.155,9.293-19.828,16.306-28.242c34.131-40.957,94.98-40.972,129.111,0.015l-23.057,19.189    c-22.529-27.041-60.469-27.041-82.998,0c-2.344,2.811-4.252,5.927-6.152,9.038H181z" fill="#FFFFFF"/>
	</g>
</g>
<g>
	<g>
		<path d="M361,211c-15.081,0-29.35,2.897-43.081,7.037c-18.292,45.377-54.505,81.59-99.882,99.882    c-4.14,13.731-7.037,28-7.037,43.081c0,82.842,67.158,151,150,151s151-68.158,151-151S443.842,211,361,211z M361,346    c24.814,0,45,20.186,45,45c0,19.53-12.578,36.024-30,42.237V466h-30v-32.763c-17.422-6.213-30-22.707-30-42.237h30    c0,8.276,6.724,15,15,15s15-6.724,15-15s-6.724-15-15-15c-24.814,0-45-20.186-45-45c0-19.53,12.578-36.024,30-42.237V256h30    v32.763c17.422,6.213,30,22.707,30,42.237h-30c0-8.276-6.724-15-15-15s-15,6.724-15,15S352.724,346,361,346z" fill="#FFFFFF"/>
	</g>
</g>
<g>
</g>
<g>
</g>
<g>
</g>
<g>
</g>
<g>
</g>
<g>
</g>
<g>
</g>
<g>
</g>
<g>
</g>
<g>
</g>
<g>
</g>
<g>
</g>
<g>
</g>
<g>
</g>
<g>
</g>
</svg>
