<?xml version="1.0"?>
<svg xmlns="http://www.w3.org/2000/svg" height="512px" viewBox="0 0 464 464" width="512px"><path d="m448 280v104h-32v-80h-16v80h-32v-64h-16v64h-32v-48h-16v48h-32v-32h-16v48h208v-120zm0 0" fill="#FFFFFF"/><path d="m48 336h16v48h-16zm0 0" fill="#FFFFFF"/><path d="m80 368h96v16h-96zm0 0" fill="#FFFFFF"/><path d="m80 336h96v16h-96zm0 0" fill="#FFFFFF"/><path d="m224 360c0-1.878906-1.046875-3.574219-2.742188-4.425781l-29.257812-14.621094v38.109375l29.265625-14.628906c1.6875-.847656 2.734375-2.546875 2.734375-4.433594zm0 0" fill="#FFFFFF"/><path d="m352 107.414062c5.160156-1.460937 10.496094-2.503906 16-3.007812v-32.40625c0-13.230469-10.769531-24-24-24h-56v16h64zm0 0" fill="#FFFFFF"/><path d="m32 336h-8c-13.230469 0-24 10.769531-24 24s10.769531 24 24 24h8zm0 0" fill="#FFFFFF"/><path d="m48 64h64v-16h-56c-13.230469 0-24 10.769531-24 24v248h16zm0 0" fill="#FFFFFF"/><path d="m272 32h-48v-8c0-13.230469-10.769531-24-24-24s-24 10.769531-24 24v8h-48v48h144zm-112 32h-16v-16h16zm96 0h-16v-16h16zm0 0" fill="#FFFFFF"/><path d="m304 192c0 39.703125 32.296875 72 72 72s72-32.296875 72-72-32.296875-72-72-72-72 32.296875-72 72zm72 8c-13.230469 0-24-10.769531-24-24 0-10.414062 6.710938-19.214844 16-22.527344v-17.472656h16v17.472656c9.289062 3.3125 16 12.113282 16 22.527344h-16c0-4.414062-3.585938-8-8-8s-8 3.585938-8 8 3.585938 8 8 8c13.230469 0 24 10.769531 24 24 0 10.414062-6.710938 19.214844-16 22.527344v17.472656h-16v-17.472656c-9.289062-3.3125-16-12.113282-16-22.527344h16c0 4.414062 3.585938 8 8 8s8-3.585938 8-8-3.585938-8-8-8zm0 0" fill="#FFFFFF"/><path d="m368 304v-24.40625c-5.503906-.496094-10.839844-1.539062-16-3.007812v27.40625h16zm0 0" fill="#FFFFFF"/><path d="m352 448h-304v-48h-16v40c0 13.230469 10.769531 24 24 24h288c13.230469 0 24-10.769531 24-24v-24h-16zm0 0" fill="#FFFFFF"/><path d="m112 80h-48v240h121.886719l42.539062 21.265625c7.132813 3.582031 11.574219 10.757813 11.574219 18.734375v-24h48v-16h48v-49.710938c-28.449219-14.601562-48-44.167968-48-78.289062s19.550781-63.6875 48-78.289062v-33.710938h-48v16h-176zm160 208h-192v-16h192zm0-32h-192v-16h192zm0-32h-192v-16h192zm0-32h-192v-16h192zm0-32h-192v-16h192zm-96-48v16h-96v-16zm0 0" fill="#FFFFFF"/><path d="m228.433594 378.734375-42.539063 21.265625h-121.894531v32h272v-16h-96v-56c0 7.976562-4.441406 15.160156-11.566406 18.734375zm0 0" fill="#FFFFFF"/></svg>
