<?xml version="1.0"?>
<svg xmlns="http://www.w3.org/2000/svg" height="512px" viewBox="-32 0 384 384" width="512px"><path d="m16 384h144c8.832031 0 16-7.167969 16-16s-7.167969-16-16-16h-128v-320h216v64c0 8.832031 7.167969 16 16 16s16-7.167969 16-16v-80c0-8.832031-7.167969-16-16-16h-248c-8.832031 0-16 7.167969-16 16v352c0 8.832031 7.167969 16 16 16zm0 0" fill="#FFFFFF"/><path d="m136 64h-64c-8.832031 0-16 7.167969-16 16s7.167969 16 16 16h64c8.832031 0 16-7.167969 16-16s-7.167969-16-16-16zm0 0" fill="#FFFFFF"/><path d="m136 120h-64c-8.832031 0-16 7.167969-16 16s7.167969 16 16 16h64c8.832031 0 16-7.167969 16-16s-7.167969-16-16-16zm0 0" fill="#FFFFFF"/><path d="m136 176h-64c-8.832031 0-16 7.167969-16 16s7.167969 16 16 16h64c8.832031 0 16-7.167969 16-16s-7.167969-16-16-16zm0 0" fill="#FFFFFF"/><path d="m136 232h-64c-8.832031 0-16 7.167969-16 16s7.167969 16 16 16h64c8.832031 0 16-7.167969 16-16s-7.167969-16-16-16zm0 0" fill="#FFFFFF"/><path d="m192 96h16c8.832031 0 16-7.167969 16-16s-7.167969-16-16-16h-16c-8.832031 0-16 7.167969-16 16s7.167969 16 16 16zm0 0" fill="#FFFFFF"/><path d="m192 152h16c8.832031 0 16-7.167969 16-16s-7.167969-16-16-16h-16c-8.832031 0-16 7.167969-16 16s7.167969 16 16 16zm0 0" fill="#FFFFFF"/><path d="m280 160c0-8.832031-7.167969-16-16-16s-16 7.167969-16 16v10.359375c-23.097656 6.90625-40 28.328125-40 53.640625 0 30.878906 25.128906 56 56 56 13.230469 0 24 10.769531 24 24 0 13.199219-10.710938 23.9375-23.902344 23.992188-.035156 0-.066406-.007813-.097656-.007813s-.0625.007813-.097656.007813c-13.191406-.054688-23.902344-10.792969-23.902344-23.992188 0-8.832031-7.167969-16-16-16s-16 7.167969-16 16c0 25.320312 16.902344 46.734375 40 53.640625v10.359375c0 8.832031 7.167969 16 16 16s16-7.167969 16-16v-10.359375c23.105469-6.90625 40-28.328125 40-53.640625 0-30.878906-25.128906-56-56-56-13.230469 0-24-10.769531-24-24s10.769531-24 24-24 24 10.769531 24 24c0 8.832031 7.167969 16 16 16s16-7.167969 16-16c0-25.320312-16.894531-46.734375-40-53.640625zm0 0" fill="#FFFFFF"/></svg>
