<?xml version="1.0" encoding="iso-8859-1"?>
<!-- Generator: Adobe Illustrator 16.0.0, SVG Export Plug-In . SVG Version: 6.00 Build 0)  -->
<!DOCTYPE svg PUBLIC "-//W3C//DTD SVG 1.1//EN" "http://www.w3.org/Graphics/SVG/1.1/DTD/svg11.dtd">
<svg xmlns="http://www.w3.org/2000/svg" xmlns:xlink="http://www.w3.org/1999/xlink" version="1.1" id="Capa_1" x="0px" y="0px" width="512px" height="512px" viewBox="0 0 548.904 548.903" style="enable-background:new 0 0 548.904 548.903;" xml:space="preserve">
<g>
	<g id="Layer_8_9_">
		<path d="M548.904,35.373v54.474h-27.03v-1.572c0-10.013-8.146-18.158-18.158-18.158H164.771c-10.01,0-18.158,8.146-18.158,18.158    v11.945c-2.069,0.94-4.079,2.021-5.914,3.402c-11.904,8.987-16.385,24.956-10.9,38.804l15.082,38.192h-27.73V35.373H548.904z     M521.874,378.031v21.953c0,10.013-8.146,18.158-18.158,18.158H164.771c-10.01,0-18.158-8.146-18.158-18.158v-11.869    c-2.01-0.939-3.945-2.021-5.769-3.369c-12.055-9.078-16.547-25.073-11.015-38.969l15.061-38.143h-27.733V513.53h112.978    l8.473-46.399h188.834l8.464,46.399h112.979V371.293h-15.971C530.231,374.733,526.354,377.216,521.874,378.031z M534.789,275.87    c2.068,0,5.071-4.185,7.441-12.114l-7.459-24.84l-7.442,24.787C529.7,271.667,532.702,275.87,534.789,275.87z M545.877,234.504    c0-9.963-0.981-18.152-2.395-24.568l-7.134,23.72l7.317,24.364C544.96,251.76,545.877,243.97,545.877,234.504z M523.688,234.504    c0,9.437,0.904,17.203,2.205,23.454l7.294-24.302l-7.105-23.658C524.664,216.408,523.688,224.57,523.688,234.504z     M541.982,204.374c-2.329-7.382-5.201-11.228-7.193-11.228c-2.01,0-4.889,3.869-7.223,11.284l7.193,23.98L541.982,204.374z     M503.491,97.714c-0.083-10.021-8.233-18.158-18.275-18.158h-307.31c-9.859,0-17.859,7.87-18.217,17.656    c4.079-0.119,8.183,0.396,12.031,1.685v-1.029c0-3.422,2.778-6.206,6.18-6.206h307.303c3.369,0,6.077,2.707,6.171,6.053h-33.266    v16.645h-18.453v242.104h18.453v10.593h33.29v26.604c0,3.422-2.761,6.206-6.183,6.206h-307.31c-3.408,0-6.18-2.784-6.18-6.206    v-4.191c-3.523,1.229-7.232,1.886-10.973,1.886c-0.387,0-0.757-0.077-1.138-0.089v2.395c0,10.107,8.201,18.312,18.285,18.312    h307.303c10.084,0,18.288-8.204,18.288-18.312v-26.604h1.005v4.237l44.39-16.951v-92.081c-2.802,11.476-7.53,19.662-14.114,19.662    c-11.267,0-17.153-23.85-17.153-47.413c0-23.563,5.887-47.416,17.153-47.416c6.584,0,11.312,8.183,14.114,19.659v-92.084    l-44.378-16.955H503.491z M407.683,167.514H263.907l15.75,12.105h128.026V167.514z M407.683,251.344h-66.266    c-0.98,4.362-2.872,8.467-5.438,12.105h71.703V251.344z M227.036,349.099h180.647v-12.105H242.785L227.036,349.099z     M150.893,354.176c-1.005,2.53-0.186,5.414,1.986,7.046c1.09,0.815,2.355,1.218,3.632,1.218c1.3,0,2.601-0.414,3.686-1.254    L308.4,247.25c1.502-1.149,2.364-2.923,2.364-4.799s-0.862-3.656-2.364-4.799L160.197,123.73c-2.148-1.664-5.157-1.679-7.317-0.05    c-2.172,1.641-2.991,4.528-1.986,7.058l29.802,75.433H6.041C2.695,206.17,0,208.89,0,212.223v60.456    c0,3.345,2.695,6.052,6.041,6.052h174.654L150.893,354.176z" fill="#FFFFFF"/>
	</g>
</g>
<g>
</g>
<g>
</g>
<g>
</g>
<g>
</g>
<g>
</g>
<g>
</g>
<g>
</g>
<g>
</g>
<g>
</g>
<g>
</g>
<g>
</g>
<g>
</g>
<g>
</g>
<g>
</g>
<g>
</g>
</svg>
