<?xml version="1.0"?>
<svg xmlns="http://www.w3.org/2000/svg" height="512px" version="1.1" viewBox="0 0 872.49858 872" width="512px">
<g id="surface1">
<path d="M 623.214844 747.015625 L 654.378906 747.015625 L 654.378906 778.175781 L 623.214844 778.175781 Z M 623.214844 747.015625 " style=" fill-rule:nonzero;fill-opacity:1;" stroke="#FFFFFF" fill="#FFFFFF"/>
<path d="M 202.546875 684.691406 L 233.707031 684.691406 L 233.707031 715.851562 L 202.546875 715.851562 Z M 202.546875 684.691406 " style=" fill-rule:nonzero;fill-opacity:1;" stroke="#FFFFFF" fill="#FFFFFF"/>
<path d="M 202.546875 622.367188 L 233.707031 622.367188 L 233.707031 653.53125 L 202.546875 653.53125 Z M 202.546875 622.367188 " style=" fill-rule:nonzero;fill-opacity:1;" stroke="#FFFFFF" fill="#FFFFFF"/>
<path d="M 202.546875 747.015625 L 233.707031 747.015625 L 233.707031 778.175781 L 202.546875 778.175781 Z M 202.546875 747.015625 " style=" fill-rule:nonzero;fill-opacity:1;" stroke="#FFFFFF" fill="#FFFFFF"/>
<path d="M 202.546875 809.335938 L 233.707031 809.335938 L 233.707031 840.492188 L 202.546875 840.492188 Z M 202.546875 809.335938 " style=" fill-rule:nonzero;fill-opacity:1;" stroke="#FFFFFF" fill="#FFFFFF"/>
<path d="M 264.863281 809.335938 L 296.023438 809.335938 L 296.023438 840.492188 L 264.863281 840.492188 Z M 264.863281 809.335938 " style=" fill-rule:nonzero;fill-opacity:1;" stroke="#FFFFFF" fill="#FFFFFF"/>
<path d="M 327.1875 809.335938 L 358.34375 809.335938 L 358.34375 840.492188 L 327.1875 840.492188 Z M 327.1875 809.335938 " style=" fill-rule:nonzero;fill-opacity:1;" stroke="#FFFFFF" fill="#FFFFFF"/>
<path d="M 389.507812 809.335938 L 420.671875 809.335938 L 420.671875 840.492188 L 389.507812 840.492188 Z M 389.507812 809.335938 " style=" fill-rule:nonzero;fill-opacity:1;" stroke="#FFFFFF" fill="#FFFFFF"/>
<path d="M 218.125 186.125 L 249.28125 186.125 L 249.28125 435.40625 L 218.125 435.40625 Z M 218.125 186.125 " style=" fill-rule:nonzero;fill-opacity:1;" stroke="#FFFFFF" fill="#FFFFFF"/>
<path d="M 280.445312 186.125 L 342.769531 186.125 L 342.769531 435.40625 L 280.445312 435.40625 Z M 280.445312 186.125 " style=" fill-rule:nonzero;fill-opacity:1;" stroke="#FFFFFF" fill="#FFFFFF"/>
<path d="M 62.320312 186.125 L 93.484375 186.125 L 93.484375 435.40625 L 62.320312 435.40625 Z M 62.320312 186.125 " style=" fill-rule:nonzero;fill-opacity:1;" stroke="#FFFFFF" fill="#FFFFFF"/>
<path d="M 124.644531 186.125 L 186.960938 186.125 L 186.960938 435.40625 L 124.644531 435.40625 Z M 124.644531 186.125 " style=" fill-rule:nonzero;fill-opacity:1;" stroke="#FFFFFF" fill="#FFFFFF"/>
<path d="M 327.1875 77.0625 C 327.1875 85.671875 320.210938 92.636719 311.609375 92.636719 C 303.003906 92.636719 296.023438 85.671875 296.023438 77.0625 C 296.023438 68.453125 303.003906 61.476562 311.609375 61.476562 C 320.210938 61.476562 327.1875 68.453125 327.1875 77.0625 Z M 327.1875 77.0625 " style=" fill-rule:nonzero;fill-opacity:1;" stroke="#FFFFFF" fill="#FFFFFF"/>
<path d="M 109.0625 154.960938 L 623.214844 154.960938 L 623.214844 118.960938 L 311.609375 0.25 L 0 118.960938 L 0 154.960938 Z M 311.609375 30.320312 C 337.421875 30.320312 358.34375 51.246094 358.34375 77.0625 C 358.34375 102.878906 337.421875 123.796875 311.609375 123.796875 C 285.789062 123.796875 264.863281 102.878906 264.863281 77.0625 C 264.863281 51.246094 285.789062 30.320312 311.609375 30.320312 Z M 311.609375 30.320312 " style=" fill-rule:nonzero;fill-opacity:1;" stroke="#FFFFFF" fill="#FFFFFF"/>
<path d="M 373.929688 186.125 L 405.085938 186.125 L 405.085938 435.40625 L 373.929688 435.40625 Z M 373.929688 186.125 " style=" fill-rule:nonzero;fill-opacity:1;" stroke="#FFFFFF" fill="#FFFFFF"/>
<path d="M 529.734375 186.125 L 560.890625 186.125 L 560.890625 341.921875 L 529.734375 341.921875 Z M 529.734375 186.125 " style=" fill-rule:nonzero;fill-opacity:1;" stroke="#FFFFFF" fill="#FFFFFF"/>
<path d="M 0 528.890625 L 0 560.050781 L 467.40625 560.050781 L 467.40625 528.890625 Z M 0 528.890625 " style=" fill-rule:nonzero;fill-opacity:1;" stroke="#FFFFFF" fill="#FFFFFF"/>
<path d="M 638.792969 715.851562 C 610.28125 716.164062 582.613281 706.148438 560.890625 687.671875 L 560.890625 780.84375 C 574.191406 785.574219 584.648438 796.042969 589.390625 809.335938 L 688.195312 809.335938 C 692.9375 796.042969 703.394531 785.574219 716.695312 780.84375 L 716.695312 753.460938 L 674.082031 710.855469 C 662.613281 714.1875 650.738281 715.867188 638.792969 715.851562 Z M 638.792969 715.851562 " style=" fill-rule:nonzero;fill-opacity:1;" stroke="#FFFFFF" fill="#FFFFFF"/>
<path d="M 840.558594 628.039062 L 810.175781 597.664062 L 810.175781 678.25 L 836.773438 704.847656 L 814.742188 726.863281 L 705.679688 617.800781 C 694.492188 607.089844 676.78125 607.277344 665.816406 618.238281 C 654.855469 629.195312 654.671875 646.90625 665.386719 658.101562 L 774.449219 767.164062 C 780.527344 773.246094 780.527344 783.113281 774.449219 789.191406 C 752.144531 811.433594 737.828125 840.425781 733.722656 871.65625 L 872.5 871.65625 L 872.5 705.148438 C 872.570312 676.210938 861.070312 648.449219 840.558594 628.039062 Z M 840.558594 628.039062 " style=" fill-rule:nonzero;fill-opacity:1;" stroke="#FFFFFF" fill="#FFFFFF"/>
<path d="M 716.695312 463.90625 C 703.394531 459.175781 692.9375 448.703125 688.195312 435.40625 L 589.390625 435.40625 C 584.648438 448.703125 574.191406 459.175781 560.890625 463.90625 L 560.890625 557.070312 C 606.027344 519.488281 671.558594 519.488281 716.695312 557.070312 Z M 654.378906 497.726562 L 623.214844 497.726562 L 623.214844 466.570312 L 654.378906 466.570312 Z M 654.378906 497.726562 " style=" fill-rule:nonzero;fill-opacity:1;" stroke="#FFFFFF" fill="#FFFFFF"/>
<path d="M 576.46875 840.492188 C 567.871094 840.492188 560.890625 833.527344 560.890625 824.914062 C 560.890625 816.308594 553.914062 809.335938 545.304688 809.335938 C 536.707031 809.335938 529.734375 802.363281 529.734375 793.75 L 529.734375 450.984375 C 529.734375 442.386719 536.707031 435.40625 545.304688 435.40625 C 553.914062 435.40625 560.890625 428.441406 560.890625 419.828125 C 560.890625 411.222656 567.871094 404.242188 576.46875 404.242188 L 701.117188 404.242188 C 709.71875 404.242188 716.695312 411.222656 716.695312 419.828125 C 716.695312 428.441406 723.667969 435.40625 732.277344 435.40625 C 740.882812 435.40625 747.851562 442.386719 747.851562 450.984375 L 747.851562 615.925781 L 779.015625 647.085938 L 779.015625 373.085938 L 498.570312 373.085938 L 498.570312 871.65625 L 702.304688 871.65625 C 703.558594 860.128906 705.972656 848.753906 709.515625 837.710938 C 707.054688 839.449219 704.125 840.425781 701.117188 840.492188 Z M 576.46875 840.492188 " style=" fill-rule:nonzero;fill-opacity:1;" stroke="#FFFFFF" fill="#FFFFFF"/>
<path d="M 420.671875 466.570312 L 31.164062 466.570312 L 31.164062 497.726562 L 467.40625 497.726562 L 467.40625 466.570312 Z M 420.671875 466.570312 " style=" fill-rule:nonzero;fill-opacity:1;" stroke="#FFFFFF" fill="#FFFFFF"/>
<path d="M 498.570312 186.125 L 436.25 186.125 L 436.25 435.40625 L 467.40625 435.40625 L 467.40625 357.507812 C 467.40625 348.902344 474.386719 341.921875 482.992188 341.921875 L 498.570312 341.921875 Z M 498.570312 186.125 " style=" fill-rule:nonzero;fill-opacity:1;" stroke="#FFFFFF" fill="#FFFFFF"/>
<path d="M 694.792969 579.234375 C 678.90625 566.554688 659.109375 559.777344 638.792969 560.050781 C 595.839844 560.050781 560.890625 588.003906 560.890625 622.367188 C 560.890625 656.738281 595.839844 684.691406 638.792969 684.691406 C 641.675781 684.691406 644.496094 684.351562 647.3125 684.109375 L 643.355469 680.128906 C 625.042969 661.914062 620.585938 633.964844 632.3125 610.953125 C 644.039062 587.941406 669.28125 575.128906 694.769531 579.234375 Z M 694.792969 579.234375 " style=" fill-rule:nonzero;fill-opacity:1;" stroke="#FFFFFF" fill="#FFFFFF"/>
</g>
</svg>
