<?xml version="1.0" encoding="iso-8859-1"?>
<!-- Generator: Adobe Illustrator 16.0.0, SVG Export Plug-In . SVG Version: 6.00 Build 0)  -->
<!DOCTYPE svg PUBLIC "-//W3C//DTD SVG 1.1//EN" "http://www.w3.org/Graphics/SVG/1.1/DTD/svg11.dtd">
<svg xmlns="http://www.w3.org/2000/svg" xmlns:xlink="http://www.w3.org/1999/xlink" version="1.1" id="Capa_1" x="0px" y="0px" width="512px" height="512px" viewBox="0 0 463.972 463.971" style="enable-background:new 0 0 463.972 463.971;" xml:space="preserve">
<g>
	<g id="Layer_8_74_">
		<path d="M449.171,321.64h14.801v131.677H359.379l-7.848-42.953H176.708l-7.846,42.953H64.271V278.236l27.268,20.962V348.2    c0,9.272,7.541,16.81,16.809,16.81h313.784c9.264,0,16.81-7.537,16.81-16.81v-20.322    C443.083,327.123,446.679,324.825,449.171,321.64z M64.271,10.655v121.968l27.268-20.963v-52.03c0-9.27,7.541-16.81,16.809-16.81    h313.784c9.264,0,16.81,7.541,16.81,16.81v1.456h25.03v-50.43H64.271z M450.894,233.299c1.915,0,4.693-3.874,6.888-11.215    l-6.9-22.99l-6.888,22.947C446.188,229.409,448.979,233.299,450.894,233.299z M461.171,195.003c0-9.223-0.911-16.805-2.223-22.744    l-6.602,21.959l6.775,22.557C460.325,210.979,461.171,203.767,461.171,195.003z M440.627,195.003    c0,8.737,0.826,15.926,2.03,21.713l6.752-22.498l-6.578-21.901C441.537,178.251,440.627,185.808,440.627,195.003z M457.552,167.11    c-2.156-6.834-4.809-10.394-6.658-10.394c-1.849,0-4.527,3.582-6.676,10.446l6.663,22.2L457.552,167.11z M421.923,68.368    c-0.08-9.278-7.626-16.811-16.912-16.811H120.506c-9.33,0-16.926,7.606-16.926,16.953v33.888l11.206-8.618V68.51    c0-3.168,2.566-5.746,5.721-5.746h284.504c3.114,0,5.612,2.506,5.695,5.604H379.92v15.409h-17.095V307.91h17.095v9.806h30.819    v24.63c0,3.169-2.572,5.746-5.725,5.746H120.506c-3.154,0-5.721-2.577-5.721-5.746v-25.27l-11.206-8.611v33.881    c0,9.356,7.592,16.952,16.926,16.952h284.504c9.334,0,16.926-7.596,16.926-16.952v-24.63h0.928v3.925l41.095-15.695V220.7    c-2.592,10.625-6.972,18.203-13.065,18.203c-10.42,0-15.879-22.08-15.879-43.894c0-21.814,5.459-43.896,15.879-43.896    c6.094,0,10.474,7.576,13.065,18.2V84.064l-41.084-15.696H421.923z M333.223,132.987H154.57l-4.427,11.207h183.08V132.987z     M333.223,210.593H305.24v11.206h27.982V210.593z M163.747,301.092h169.476v-11.207H159.32L163.747,301.092z M146.17,316.244    c2.006-1.521,2.761-4.191,1.831-6.533l-27.59-69.834h161.694c3.096,0,5.59-2.518,5.59-5.604v-55.967    c0-3.097-2.494-5.603-5.59-5.603H120.417l27.59-69.845c0.93-2.342,0.175-5.015-1.83-6.523c-1.011-0.755-2.187-1.127-3.369-1.127    c-1.207,0-2.409,0.384-3.411,1.161L2.186,201.846C0.801,202.905,0,204.546,0,206.29c0,1.743,0.801,3.384,2.186,4.443    l137.205,105.468C141.386,317.743,144.162,317.756,146.17,316.244z" fill="#FFFFFF"/>
	</g>
</g>
<g>
</g>
<g>
</g>
<g>
</g>
<g>
</g>
<g>
</g>
<g>
</g>
<g>
</g>
<g>
</g>
<g>
</g>
<g>
</g>
<g>
</g>
<g>
</g>
<g>
</g>
<g>
</g>
<g>
</g>
</svg>
